<svg width="199" height="52" viewBox="0 0 199 52" fill="none" xmlns="http://www.w3.org/2000/svg">
<rect y="1" width="94" height="50" rx="25" fill="#F4D06F"/>
<path d="M13.6484 11.7383C13.6484 10.9701 13.9219 10.4557 14.4688 10.1953C14.651 10.1042 14.8789 10.0586 15.1523 10.0586H24.2344C26.7865 10.0586 28.9609 10.599 30.7578 11.6797C32.9453 12.9688 34.0391 14.9414 34.0391 17.5977C34.0391 19.4076 33.5182 20.918 32.4766 22.1289C31.5391 23.1966 30.3411 23.8737 28.8828 24.1602V24.2383C30.875 24.3294 32.5286 24.9089 33.8438 25.9766C35.3411 27.2266 36.0898 28.9062 36.0898 31.0156C36.0898 34.0885 34.9635 36.3997 32.7109 37.9492C30.7448 39.3164 28.0755 40 24.7031 40H15.1523C14.6185 40 14.2344 39.8372 14 39.5117C13.7656 39.1732 13.6484 38.776 13.6484 38.3203V11.7383ZM18.4922 22.793C20.4714 22.793 22.0534 22.7539 23.2383 22.6758C25.2435 22.5586 26.7148 22.1159 27.6523 21.3477C28.5898 20.5664 29.0586 19.4792 29.0586 18.0859C29.0586 16.6927 28.5573 15.6966 27.5547 15.0977C26.5651 14.4857 25.0807 14.1797 23.1016 14.1797H18.4922V22.793ZM24.6641 35.8398C27.5286 35.8398 29.4297 35.026 30.3672 33.3984C30.7188 32.7995 30.8945 32.0964 30.8945 31.2891C30.8945 30.4818 30.7839 29.8372 30.5625 29.3555C30.3411 28.8737 30.0417 28.4635 29.6641 28.125C29.2865 27.7865 28.8438 27.5195 28.3359 27.3242C27.8281 27.1159 27.2943 26.9531 26.7344 26.8359C25.7578 26.6536 24.7812 26.5625 23.8047 26.5625C22.5807 26.5625 21.2852 26.5951 19.918 26.6602L18.4922 26.7188L18.5117 35.8398H24.6641ZM45.6016 30.0586L45.582 30.4297C45.582 32.2135 46.1484 33.6458 47.2812 34.7266C48.4661 35.8724 50.0742 36.4453 52.1055 36.4453C53.9544 36.4453 55.6732 35.8919 57.2617 34.7852C57.5612 34.5768 57.8281 34.4727 58.0625 34.4727C58.5443 34.4727 58.9089 34.7135 59.1562 35.1953L59.6836 36.2891C59.8008 36.5495 59.8594 36.8294 59.8594 37.1289C59.8594 37.4284 59.7227 37.7409 59.4492 38.0664C59.1888 38.3789 58.8438 38.6654 58.4141 38.9258C57.9844 39.1862 57.4831 39.4141 56.9102 39.6094C56.3503 39.8047 55.7708 39.9674 55.1719 40.0977C53.974 40.3581 52.724 40.4883 51.4219 40.4883C50.1198 40.4883 48.8047 40.2409 47.4766 39.7461C46.1615 39.2513 45.0221 38.5286 44.0586 37.5781C41.9883 35.5599 40.9531 32.832 40.9531 29.3945C40.9531 23.3659 43.0755 19.6159 47.3203 18.1445C48.6484 17.6888 50.0091 17.4609 51.4023 17.4609C52.8086 17.4609 54 17.6107 54.9766 17.9102C55.9661 18.2096 56.819 18.6523 57.5352 19.2383C59.0456 20.4753 59.8008 22.2005 59.8008 24.4141C59.8008 26.5885 58.9154 28.2487 57.1445 29.3945C55.5951 30.3971 53.5508 30.8984 51.0117 30.8984C49.4492 30.8984 47.6458 30.6185 45.6016 30.0586ZM55.2109 24.3555C55.2109 22.4935 53.9609 21.5625 51.4609 21.5625C49.0781 21.5625 47.4115 22.4349 46.4609 24.1797C46.1224 24.7917 45.901 25.5469 45.7969 26.4453C46.9167 27.0052 48.3424 27.2852 50.0742 27.2852C53.4987 27.2852 55.2109 26.3086 55.2109 24.3555ZM68.9609 30.0586L68.9414 30.4297C68.9414 32.2135 69.5078 33.6458 70.6406 34.7266C71.8255 35.8724 73.4336 36.4453 75.4648 36.4453C77.3138 36.4453 79.0326 35.8919 80.6211 34.7852C80.9206 34.5768 81.1875 34.4727 81.4219 34.4727C81.9036 34.4727 82.2682 34.7135 82.5156 35.1953L83.043 36.2891C83.1602 36.5495 83.2188 36.8294 83.2188 37.1289C83.2188 37.4284 83.082 37.7409 82.8086 38.0664C82.5482 38.3789 82.2031 38.6654 81.7734 38.9258C81.3438 39.1862 80.8424 39.4141 80.2695 39.6094C79.7096 39.8047 79.1302 39.9674 78.5312 40.0977C77.3333 40.3581 76.0833 40.4883 74.7812 40.4883C73.4792 40.4883 72.1641 40.2409 70.8359 39.7461C69.5208 39.2513 68.3815 38.5286 67.418 37.5781C65.3477 35.5599 64.3125 32.832 64.3125 29.3945C64.3125 23.3659 66.4349 19.6159 70.6797 18.1445C72.0078 17.6888 73.3685 17.4609 74.7617 17.4609C76.168 17.4609 77.3594 17.6107 78.3359 17.9102C79.3255 18.2096 80.1784 18.6523 80.8945 19.2383C82.4049 20.4753 83.1602 22.2005 83.1602 24.4141C83.1602 26.5885 82.2747 28.2487 80.5039 29.3945C78.9544 30.3971 76.9102 30.8984 74.3711 30.8984C72.8086 30.8984 71.0052 30.6185 68.9609 30.0586ZM78.5703 24.3555C78.5703 22.4935 77.3203 21.5625 74.8203 21.5625C72.4375 21.5625 70.7708 22.4349 69.8203 24.1797C69.4818 24.7917 69.2604 25.5469 69.1562 26.4453C70.276 27.0052 71.7018 27.2852 73.4336 27.2852C76.8581 27.2852 78.5703 26.3086 78.5703 24.3555Z" fill="#0A0903"/>
<path d="M100.133 11.7383C100.133 10.9701 100.406 10.4557 100.953 10.1953C101.135 10.1042 101.363 10.0586 101.637 10.0586H110.719C113.271 10.0586 115.445 10.599 117.242 11.6797C119.43 12.9688 120.523 14.9414 120.523 17.5977C120.523 19.4076 120.003 20.918 118.961 22.1289C118.023 23.1966 116.826 23.8737 115.367 24.1602V24.2383C117.359 24.3294 119.013 24.9089 120.328 25.9766C121.826 27.2266 122.574 28.9062 122.574 31.0156C122.574 34.0885 121.448 36.3997 119.195 37.9492C117.229 39.3164 114.56 40 111.188 40H101.637C101.103 40 100.719 39.8372 100.484 39.5117C100.25 39.1732 100.133 38.776 100.133 38.3203V11.7383ZM104.977 22.793C106.956 22.793 108.538 22.7539 109.723 22.6758C111.728 22.5586 113.199 22.1159 114.137 21.3477C115.074 20.5664 115.543 19.4792 115.543 18.0859C115.543 16.6927 115.042 15.6966 114.039 15.0977C113.049 14.4857 111.565 14.1797 109.586 14.1797H104.977V22.793ZM111.148 35.8398C114.013 35.8398 115.914 35.026 116.852 33.3984C117.203 32.7995 117.379 32.0964 117.379 31.2891C117.379 30.4818 117.268 29.8372 117.047 29.3555C116.826 28.8737 116.526 28.4635 116.148 28.125C115.771 27.7865 115.328 27.5195 114.82 27.3242C114.312 27.1159 113.779 26.9531 113.219 26.8359C112.242 26.6536 111.266 26.5625 110.289 26.5625C109.065 26.5625 107.77 26.5951 106.402 26.6602L104.977 26.7188L104.996 35.8398H111.148ZM133.57 34.6289C133.57 35.5534 133.896 36.0156 134.547 36.0156C134.755 36.0156 135.022 35.957 135.348 35.8398C135.947 35.6185 136.311 35.5078 136.441 35.5078C136.741 35.5078 136.975 35.6966 137.145 36.0742L137.75 37.4609C137.828 37.6562 137.867 37.8385 137.867 38.0078C137.867 38.3073 137.62 38.6719 137.125 39.1016C136.135 39.9219 134.84 40.332 133.238 40.332C130.322 40.332 128.863 38.3854 128.863 34.4922V6.64062C128.863 6.28906 128.967 5.98958 129.176 5.74219C129.384 5.49479 129.632 5.37109 129.918 5.37109H132.535C132.835 5.37109 133.082 5.49479 133.277 5.74219C133.473 5.98958 133.57 6.28906 133.57 6.64062V34.6289ZM159.879 38.9648C159.879 39.6549 159.54 40 158.863 40H156.969C156.461 40 156.155 39.9023 156.051 39.707C155.947 39.4987 155.888 39.3164 155.875 39.1602C155.862 38.9909 155.836 38.7891 155.797 38.5547C155.719 37.9167 155.608 37.2266 155.465 36.4844C154.449 38.3464 152.854 39.5768 150.68 40.1758C149.911 40.3841 149.065 40.4883 148.141 40.4883C147.216 40.4883 146.292 40.332 145.367 40.0195C144.443 39.7201 143.622 39.2708 142.906 38.6719C141.292 37.3177 140.484 35.5404 140.484 33.3398C140.484 30.931 141.37 29.0885 143.141 27.8125C144.599 26.7839 146.474 26.2695 148.766 26.2695C151.057 26.2695 152.997 26.9401 154.586 28.2812C154.625 27.8385 154.645 27.2852 154.645 26.6211C154.645 25.957 154.514 25.293 154.254 24.6289C153.993 23.9648 153.622 23.4115 153.141 22.9688C152.151 22.0964 150.771 21.6602 149 21.6602C147.411 21.6602 145.797 22.0964 144.156 22.9688C143.844 23.138 143.57 23.2227 143.336 23.2227C142.984 23.2227 142.646 22.8776 142.32 22.1875C141.969 21.4844 141.793 20.9766 141.793 20.6641C141.793 20.0911 142.223 19.5378 143.082 19.0039C144.723 17.9883 146.917 17.4805 149.664 17.4805C152.164 17.4805 154.234 18.1641 155.875 19.5312C157.815 21.1719 158.785 23.4896 158.785 26.4844C158.785 27.8125 158.57 29.4857 158.141 31.5039C159.247 34.6549 159.827 37.1419 159.879 38.9648ZM146.793 30.6836C146.259 31.0742 145.875 31.4648 145.641 31.8555C145.419 32.2461 145.309 32.7083 145.309 33.2422C145.309 33.763 145.4 34.2318 145.582 34.6484C145.777 35.0521 146.044 35.3906 146.383 35.6641C147.099 36.224 147.9 36.5039 148.785 36.5039C149.684 36.5039 150.419 36.3997 150.992 36.1914C151.565 35.9831 152.06 35.7161 152.477 35.3906C153.375 34.6875 153.824 33.9453 153.824 33.1641C153.746 32.1875 153.206 31.4193 152.203 30.8594C151.305 30.3385 150.243 30.0781 149.02 30.0781C148.069 30.0781 147.327 30.2799 146.793 30.6836ZM171.637 36.4844C174.137 36.4844 175.387 35.6445 175.387 33.9648C175.387 33.0404 174.677 32.2591 173.258 31.6211C172.659 31.3477 172.001 31.0938 171.285 30.8594C170.582 30.625 169.905 30.3451 169.254 30.0195C168.603 29.694 167.991 29.3424 167.418 28.9648C166.858 28.5742 166.37 28.1315 165.953 27.6367C165.094 26.5951 164.664 25.2734 164.664 23.6719C164.664 21.7188 165.478 20.1693 167.105 19.0234C168.551 17.9948 170.328 17.4805 172.438 17.4805C174.703 17.4805 176.598 17.9232 178.121 18.8086C178.642 19.1211 178.902 19.4792 178.902 19.8828C178.902 20.4557 178.746 21.0872 178.434 21.7773C178.134 22.4544 177.776 22.793 177.359 22.793C176.956 22.793 176.585 22.7083 176.246 22.5391C175.921 22.3698 175.621 22.2266 175.348 22.1094C175.087 21.9792 174.807 21.875 174.508 21.7969C173.857 21.6016 173.251 21.5039 172.691 21.5039C172.145 21.5039 171.702 21.543 171.363 21.6211C171.025 21.6992 170.719 21.8229 170.445 21.9922C169.781 22.3958 169.449 22.8906 169.449 23.4766C169.449 24.0625 169.579 24.5117 169.84 24.8242C170.113 25.1367 170.484 25.4232 170.953 25.6836C171.422 25.944 171.982 26.2044 172.633 26.4648L174.742 27.3438C176.448 28.0859 177.6 28.7565 178.199 29.3555C179.371 30.5534 179.957 31.9401 179.957 33.5156C179.957 35.4948 179.28 37.1224 177.926 38.3984C176.428 39.7917 174.299 40.4883 171.539 40.4883C168.74 40.4883 166.637 39.9479 165.23 38.8672C164.54 38.3464 164.195 37.8776 164.195 37.4609C164.195 37.0443 164.267 36.6732 164.41 36.3477C164.566 36.0091 164.762 35.6185 164.996 35.1758C165.243 34.7201 165.569 34.4922 165.973 34.4922C166.389 34.4922 166.826 34.681 167.281 35.0586C167.75 35.4232 168.388 35.7552 169.195 36.0547C170.003 36.3411 170.816 36.4844 171.637 36.4844ZM197.457 20.9375C197.457 21.6667 197.047 22.0312 196.227 22.0312H190.719V34.2969C190.719 35.625 191.376 36.2891 192.691 36.2891C193.525 36.2891 194.612 35.8724 195.953 35.0391C196.214 34.8698 196.493 34.7852 196.793 34.7852C197.105 34.7852 197.353 35 197.535 35.4297L197.984 36.4453C198.154 36.8359 198.238 37.168 198.238 37.4414C198.238 37.7148 198.03 38.0339 197.613 38.3984C197.21 38.75 196.689 39.069 196.051 39.3555C194.605 40.0065 193.297 40.332 192.125 40.332C190.953 40.332 190.022 40.2148 189.332 39.9805C188.655 39.7331 188.076 39.3685 187.594 38.8867C186.552 37.8711 186.031 36.4062 186.031 34.4922V22.0312H184.391C183.57 22.0312 183.16 21.6602 183.16 20.918V19.8047C183.16 19.5052 183.238 19.2708 183.395 19.1016C183.551 18.9323 183.857 18.8021 184.312 18.7109L186.266 18.1445L187.008 13.5547C187.151 12.6953 187.503 12.2656 188.062 12.2656H189.684C189.983 12.2656 190.23 12.3893 190.426 12.6367C190.621 12.8711 190.719 13.1771 190.719 13.5547V17.9688H196.227C197.047 17.9688 197.457 18.3268 197.457 19.043V20.9375Z" fill="#F7F3F3"/>
</svg>
