<svg width="200" height="52" viewBox="0 0 200 52" fill="none" xmlns="http://www.w3.org/2000/svg">
<rect y="1" width="94" height="50" rx="25" fill="#F4D06F"/>
<path d="M14.7227 40C14.4362 40 14.1823 39.8763 13.9609 39.6289C13.7526 39.3815 13.6484 39.0885 13.6484 38.75V11.3086C13.6484 10.9701 13.7526 10.6771 13.9609 10.4297C14.1823 10.1823 14.4362 10.0586 14.7227 10.0586H24.2344C25.3281 10.0586 26.4479 10.1888 27.5938 10.4492C28.7396 10.6966 29.8008 11.1068 30.7773 11.6797C31.7539 12.2526 32.5417 13.0273 33.1406 14.0039C33.7396 14.9674 34.0391 16.1654 34.0391 17.5977C34.0391 18.8867 33.7917 19.987 33.2969 20.8984C32.8151 21.8099 32.1836 22.5391 31.4023 23.0859C30.6211 23.6198 29.7812 23.9779 28.8828 24.1602V24.2383C30.0807 24.2904 31.2266 24.5638 32.3203 25.0586C33.4271 25.5534 34.332 26.2956 35.0352 27.2852C35.7383 28.2617 36.0898 29.5052 36.0898 31.0156C36.0898 32.6432 35.7904 34.0299 35.1914 35.1758C34.5924 36.3216 33.7656 37.2526 32.7109 37.9688C31.6693 38.6719 30.4583 39.1862 29.0781 39.5117C27.7109 39.8372 26.2526 40 24.7031 40H14.7227ZM24.6641 35.8398C25.7188 35.8398 26.7214 35.7031 27.6719 35.4297C28.6224 35.1562 29.3971 34.6745 29.9961 33.9844C30.5951 33.2943 30.8945 32.3307 30.8945 31.0938C30.8945 30.0781 30.6602 29.2708 30.1914 28.6719C29.7227 28.0729 29.1042 27.6237 28.3359 27.3242C27.5807 27.0117 26.7474 26.8099 25.8359 26.7188C24.9375 26.6146 24.0456 26.5625 23.1602 26.5625C22.7956 26.5625 22.431 26.569 22.0664 26.582C21.7148 26.5951 21.3568 26.6081 20.9922 26.6211C20.6406 26.6341 20.2826 26.6471 19.918 26.6602L18.4922 26.7188V35.8398H24.6641ZM18.4922 22.793C19.2734 22.793 20.0612 22.7865 20.8555 22.7734C21.6497 22.7604 22.444 22.7279 23.2383 22.6758C25.2305 22.5586 26.6953 22.1094 27.6328 21.3281C28.5833 20.5469 29.0586 19.4206 29.0586 17.9492C29.0586 16.6471 28.5573 15.6966 27.5547 15.0977C26.5521 14.4857 25.0677 14.1797 23.1016 14.1797H18.4922V22.793ZM51.7734 40.4883C49.7292 40.4883 47.8867 40.0521 46.2461 39.1797C44.6185 38.3073 43.3294 37.0443 42.3789 35.3906C41.4284 33.737 40.9531 31.7383 40.9531 29.3945C40.9531 26.582 41.4023 24.3034 42.3008 22.5586C43.1992 20.8008 44.4557 19.5117 46.0703 18.6914C47.6979 17.8711 49.5924 17.4609 51.7539 17.4609C53.3164 17.4609 54.7031 17.7279 55.9141 18.2617C57.125 18.7956 58.0755 19.5768 58.7656 20.6055C59.4557 21.6341 59.8008 22.9036 59.8008 24.4141C59.8008 25.9635 59.3906 27.2135 58.5703 28.1641C57.75 29.1146 56.6693 29.8112 55.3281 30.2539C54 30.6836 52.5612 30.8984 51.0117 30.8984C50.1393 30.8984 49.293 30.8333 48.4727 30.7031C47.6523 30.5599 46.9167 30.4036 46.2656 30.2344C45.6146 30.0521 45.1003 29.9023 44.7227 29.7852L45.9922 27.3828C45.862 28.2161 45.7578 28.8737 45.6797 29.3555C45.6146 29.8372 45.582 30.1953 45.582 30.4297C45.582 32.1615 46.1484 33.6003 47.2812 34.7461C48.4141 35.8789 50.0221 36.4453 52.1055 36.4453C53.1602 36.4453 54.026 36.3216 54.7031 36.0742C55.3932 35.8268 55.9661 35.5664 56.4219 35.293C56.7865 35.0716 57.099 34.8828 57.3594 34.7266C57.6198 34.5573 57.8672 34.4727 58.1016 34.4727C58.2969 34.4727 58.4792 34.5182 58.6484 34.6094C58.8307 34.7005 59 34.8958 59.1562 35.1953L59.6836 36.2891C59.7487 36.4193 59.7943 36.543 59.8203 36.6602C59.8464 36.7643 59.8594 36.875 59.8594 36.9922C59.8594 37.5781 59.5794 38.0924 59.0195 38.5352C58.4727 38.9648 57.7695 39.3294 56.9102 39.6289C56.0638 39.9154 55.1784 40.1302 54.2539 40.2734C53.3294 40.4167 52.5026 40.4883 51.7734 40.4883ZM50.0742 27.2852C51.5846 27.2852 52.8151 27.0638 53.7656 26.6211C54.7292 26.1784 55.2109 25.4232 55.2109 24.3555C55.2109 23.3789 54.8789 22.6693 54.2148 22.2266C53.5638 21.7839 52.6458 21.5625 51.4609 21.5625C50.5365 21.5625 49.6641 21.7253 48.8438 22.0508C48.0365 22.3633 47.3594 22.8776 46.8125 23.5938C46.2786 24.2969 45.9401 25.2474 45.7969 26.4453C45.9661 26.5234 46.2656 26.6276 46.6953 26.7578C47.125 26.888 47.6328 27.0117 48.2188 27.1289C48.8177 27.2331 49.4362 27.2852 50.0742 27.2852ZM75.1328 40.4883C73.0885 40.4883 71.2461 40.0521 69.6055 39.1797C67.9779 38.3073 66.6888 37.0443 65.7383 35.3906C64.7878 33.737 64.3125 31.7383 64.3125 29.3945C64.3125 26.582 64.7617 24.3034 65.6602 22.5586C66.5586 20.8008 67.8151 19.5117 69.4297 18.6914C71.0573 17.8711 72.9518 17.4609 75.1133 17.4609C76.6758 17.4609 78.0625 17.7279 79.2734 18.2617C80.4844 18.7956 81.4349 19.5768 82.125 20.6055C82.8151 21.6341 83.1602 22.9036 83.1602 24.4141C83.1602 25.9635 82.75 27.2135 81.9297 28.1641C81.1094 29.1146 80.0286 29.8112 78.6875 30.2539C77.3594 30.6836 75.9206 30.8984 74.3711 30.8984C73.4987 30.8984 72.6523 30.8333 71.832 30.7031C71.0117 30.5599 70.276 30.4036 69.625 30.2344C68.974 30.0521 68.4596 29.9023 68.082 29.7852L69.3516 27.3828C69.2214 28.2161 69.1172 28.8737 69.0391 29.3555C68.974 29.8372 68.9414 30.1953 68.9414 30.4297C68.9414 32.1615 69.5078 33.6003 70.6406 34.7461C71.7734 35.8789 73.3815 36.4453 75.4648 36.4453C76.5195 36.4453 77.3854 36.3216 78.0625 36.0742C78.7526 35.8268 79.3255 35.5664 79.7812 35.293C80.1458 35.0716 80.4583 34.8828 80.7188 34.7266C80.9792 34.5573 81.2266 34.4727 81.4609 34.4727C81.6562 34.4727 81.8385 34.5182 82.0078 34.6094C82.1901 34.7005 82.3594 34.8958 82.5156 35.1953L83.043 36.2891C83.1081 36.4193 83.1536 36.543 83.1797 36.6602C83.2057 36.7643 83.2188 36.875 83.2188 36.9922C83.2188 37.5781 82.9388 38.0924 82.3789 38.5352C81.832 38.9648 81.1289 39.3294 80.2695 39.6289C79.4232 39.9154 78.5378 40.1302 77.6133 40.2734C76.6888 40.4167 75.862 40.4883 75.1328 40.4883ZM73.4336 27.2852C74.944 27.2852 76.1745 27.0638 77.125 26.6211C78.0885 26.1784 78.5703 25.4232 78.5703 24.3555C78.5703 23.3789 78.2383 22.6693 77.5742 22.2266C76.9232 21.7839 76.0052 21.5625 74.8203 21.5625C73.8958 21.5625 73.0234 21.7253 72.2031 22.0508C71.3958 22.3633 70.7188 22.8776 70.1719 23.5938C69.638 24.2969 69.2995 25.2474 69.1562 26.4453C69.3255 26.5234 69.625 26.6276 70.0547 26.7578C70.4844 26.888 70.9922 27.0117 71.5781 27.1289C72.1771 27.2331 72.7956 27.2852 73.4336 27.2852ZM101.207 40C100.921 40 100.667 39.8763 100.445 39.6289C100.237 39.3815 100.133 39.0885 100.133 38.75V11.3086C100.133 10.9701 100.237 10.6771 100.445 10.4297C100.667 10.1823 100.921 10.0586 101.207 10.0586H110.719C111.812 10.0586 112.932 10.1888 114.078 10.4492C115.224 10.6966 116.285 11.1068 117.262 11.6797C118.238 12.2526 119.026 13.0273 119.625 14.0039C120.224 14.9674 120.523 16.1654 120.523 17.5977C120.523 18.8867 120.276 19.987 119.781 20.8984C119.299 21.8099 118.668 22.5391 117.887 23.0859C117.105 23.6198 116.266 23.9779 115.367 24.1602V24.2383C116.565 24.2904 117.711 24.5638 118.805 25.0586C119.911 25.5534 120.816 26.2956 121.52 27.2852C122.223 28.2617 122.574 29.5052 122.574 31.0156C122.574 32.6432 122.275 34.0299 121.676 35.1758C121.077 36.3216 120.25 37.2526 119.195 37.9688C118.154 38.6719 116.943 39.1862 115.562 39.5117C114.195 39.8372 112.737 40 111.188 40H101.207ZM111.148 35.8398C112.203 35.8398 113.206 35.7031 114.156 35.4297C115.107 35.1562 115.882 34.6745 116.48 33.9844C117.079 33.2943 117.379 32.3307 117.379 31.0938C117.379 30.0781 117.145 29.2708 116.676 28.6719C116.207 28.0729 115.589 27.6237 114.82 27.3242C114.065 27.0117 113.232 26.8099 112.32 26.7188C111.422 26.6146 110.53 26.5625 109.645 26.5625C109.28 26.5625 108.915 26.569 108.551 26.582C108.199 26.5951 107.841 26.6081 107.477 26.6211C107.125 26.6341 106.767 26.6471 106.402 26.6602L104.977 26.7188V35.8398H111.148ZM104.977 22.793C105.758 22.793 106.546 22.7865 107.34 22.7734C108.134 22.7604 108.928 22.7279 109.723 22.6758C111.715 22.5586 113.18 22.1094 114.117 21.3281C115.068 20.5469 115.543 19.4206 115.543 17.9492C115.543 16.6471 115.042 15.6966 114.039 15.0977C113.036 14.4857 111.552 14.1797 109.586 14.1797H104.977V22.793ZM133.238 40.332C131.91 40.332 130.849 39.9089 130.055 39.0625C129.26 38.2161 128.863 36.6927 128.863 34.4922V6.62109C128.863 6.28255 128.967 5.98958 129.176 5.74219C129.397 5.49479 129.651 5.37109 129.938 5.37109H132.594C132.893 5.37109 133.147 5.49479 133.355 5.74219C133.564 5.98958 133.668 6.28255 133.668 6.62109V34.6289C133.668 35.1497 133.766 35.5143 133.961 35.7227C134.156 35.918 134.384 36.0156 134.645 36.0156C134.944 36.0156 135.263 35.931 135.602 35.7617C135.953 35.5924 136.233 35.5078 136.441 35.5078C136.754 35.5078 136.988 35.6966 137.145 36.0742C137.197 36.2044 137.327 36.4909 137.535 36.9336C137.757 37.3763 137.867 37.7279 137.867 37.9883C137.867 38.3138 137.678 38.6328 137.301 38.9453C136.676 39.4661 136.012 39.8242 135.309 40.0195C134.618 40.2279 133.928 40.332 133.238 40.332ZM148.531 40.4883C147.268 40.4883 146.044 40.2214 144.859 39.6875C143.688 39.1406 142.724 38.3398 141.969 37.2852C141.214 36.2174 140.836 34.9023 140.836 33.3398C140.836 31.9596 141.09 30.8268 141.598 29.9414C142.105 29.056 142.737 28.3464 143.492 27.8125C144.247 27.2786 145.087 26.888 146.012 26.6406C146.949 26.3932 147.893 26.2695 148.844 26.2695C149.56 26.2695 150.348 26.3542 151.207 26.5234C152.066 26.6797 152.932 26.9987 153.805 27.4805C154.677 27.9492 155.478 28.6589 156.207 29.6094L154.742 29.7266C154.833 29.2839 154.898 28.8216 154.938 28.3398C154.977 27.8581 154.996 27.3958 154.996 26.9531C154.996 25.1693 154.488 23.8411 153.473 22.9688C152.47 22.0964 151.096 21.6602 149.352 21.6602C148.297 21.6602 147.398 21.7904 146.656 22.0508C145.927 22.3112 145.335 22.5586 144.879 22.793C144.632 22.9232 144.417 23.0273 144.234 23.1055C144.052 23.1836 143.902 23.2227 143.785 23.2227C143.499 23.2227 143.271 23.112 143.102 22.8906C142.932 22.6693 142.789 22.4349 142.672 22.1875C142.503 21.8229 142.372 21.4844 142.281 21.1719C142.19 20.8594 142.145 20.6771 142.145 20.625C142.145 20.3255 142.262 20.0391 142.496 19.7656C142.743 19.4922 143.056 19.2383 143.434 19.0039C144.332 18.457 145.387 18.0664 146.598 17.832C147.809 17.5977 148.948 17.4805 150.016 17.4805C150.719 17.4805 151.422 17.5456 152.125 17.6758C152.828 17.793 153.512 17.9948 154.176 18.2812C155.699 18.9323 156.904 19.9609 157.789 21.3672C158.688 22.7604 159.137 24.4661 159.137 26.4844C159.137 27.2917 159.078 28.0859 158.961 28.8672C158.857 29.6484 158.701 30.5273 158.492 31.5039C158.805 32.3893 159.091 33.2747 159.352 34.1602C159.612 35.0456 159.82 35.8984 159.977 36.7188C160.133 37.5391 160.217 38.2878 160.23 38.9648C160.23 39.2122 160.172 39.4466 160.055 39.668C159.938 39.8893 159.658 40 159.215 40H157.32C156.747 40 156.422 39.8633 156.344 39.5898C156.279 39.3034 156.22 38.9844 156.168 38.6328C156.129 38.3073 156.07 37.9232 155.992 37.4805C155.914 37.0378 155.836 36.6276 155.758 36.25C155.693 35.8724 155.628 35.6315 155.562 35.5273L156.324 35.3516C156.012 36.25 155.51 37.0898 154.82 37.8711C154.143 38.6523 153.277 39.2839 152.223 39.7656C151.168 40.2474 149.938 40.4883 148.531 40.4883ZM149.469 36.5039C150.367 36.5039 151.168 36.3281 151.871 35.9766C152.587 35.625 153.147 35.1953 153.551 34.6875C153.967 34.1667 154.176 33.6589 154.176 33.1641C154.124 32.474 153.857 31.901 153.375 31.4453C152.893 30.9896 152.294 30.651 151.578 30.4297C150.875 30.1953 150.139 30.0781 149.371 30.0781C148.811 30.0781 148.245 30.1953 147.672 30.4297C147.099 30.6641 146.617 31.0156 146.227 31.4844C145.849 31.9401 145.66 32.5195 145.66 33.2227C145.66 34.2904 146.018 35.1042 146.734 35.6641C147.464 36.224 148.375 36.5039 149.469 36.5039ZM171.891 40.4883C170.771 40.4883 169.638 40.3646 168.492 40.1172C167.346 39.8698 166.376 39.4531 165.582 38.8672C165.204 38.5807 164.938 38.3138 164.781 38.0664C164.625 37.806 164.547 37.5456 164.547 37.2852C164.547 36.9857 164.618 36.6732 164.762 36.3477C164.918 36.0091 165.107 35.625 165.328 35.1953C165.458 34.974 165.621 34.8047 165.816 34.6875C166.012 34.5573 166.227 34.4922 166.461 34.4922C166.604 34.4922 166.754 34.5182 166.91 34.5703C167.066 34.6224 167.21 34.7005 167.34 34.8047C167.991 35.3255 168.727 35.7357 169.547 36.0352C170.367 36.3346 171.181 36.4844 171.988 36.4844C173.147 36.4844 174.059 36.3021 174.723 35.9375C175.4 35.5729 175.738 34.9154 175.738 33.9648C175.738 33.4049 175.536 32.9427 175.133 32.5781C174.742 32.2005 174.234 31.8815 173.609 31.6211C172.997 31.3607 172.34 31.1133 171.637 30.8789C170.934 30.6315 170.27 30.3516 169.645 30.0391C168.746 29.5833 167.945 29.0885 167.242 28.5547C166.552 28.0078 166.005 27.3438 165.602 26.5625C165.211 25.7812 165.016 24.8177 165.016 23.6719C165.016 22.2786 165.393 21.1263 166.148 20.2148C166.917 19.2904 167.893 18.6068 169.078 18.1641C170.276 17.7083 171.513 17.4805 172.789 17.4805C173.87 17.4805 174.892 17.5911 175.855 17.8125C176.832 18.0208 177.704 18.3529 178.473 18.8086C178.993 19.1081 179.254 19.5378 179.254 20.0977C179.254 20.3711 179.202 20.6641 179.098 20.9766C178.993 21.276 178.87 21.582 178.727 21.8945C178.596 22.207 178.434 22.4349 178.238 22.5781C178.056 22.7214 177.841 22.793 177.594 22.793C177.438 22.793 177.268 22.7669 177.086 22.7148C176.917 22.6628 176.734 22.5846 176.539 22.4805C175.966 22.207 175.413 21.9792 174.879 21.7969C174.345 21.6016 173.616 21.5039 172.691 21.5039C172.079 21.5039 171.441 21.6667 170.777 21.9922C170.126 22.3047 169.801 22.8646 169.801 23.6719C169.801 24.2708 170.029 24.7591 170.484 25.1367C170.94 25.5143 171.565 25.8659 172.359 26.1914C173.167 26.5169 174.078 26.901 175.094 27.3438C176.018 27.7344 176.878 28.1836 177.672 28.6914C178.466 29.1992 179.104 29.8372 179.586 30.6055C180.068 31.3607 180.309 32.3307 180.309 33.5156C180.309 34.7396 180.009 35.8854 179.41 36.9531C178.811 38.0078 177.893 38.8607 176.656 39.5117C175.419 40.1628 173.831 40.4883 171.891 40.4883ZM192.223 40.332C190.569 40.332 189.228 39.8503 188.199 38.8867C187.171 37.9232 186.656 36.4583 186.656 34.4922V22.0312H185.016C184.56 22.0312 184.241 21.9271 184.059 21.7188C183.876 21.4974 183.785 21.2305 183.785 20.918V19.8047C183.785 19.5052 183.863 19.2708 184.02 19.1016C184.189 18.9323 184.495 18.8021 184.938 18.7109L186.891 18.1445L187.633 13.5547C187.698 13.1771 187.815 12.8711 187.984 12.6367C188.167 12.3893 188.401 12.2656 188.688 12.2656H190.309C190.608 12.2656 190.855 12.3893 191.051 12.6367C191.246 12.8711 191.344 13.1771 191.344 13.5547V17.9688H197.008C197.307 17.9688 197.561 18.0924 197.77 18.3398C197.978 18.5872 198.082 18.8802 198.082 19.2188V20.7812C198.082 21.1198 197.978 21.4128 197.77 21.6602C197.561 21.9076 197.307 22.0312 197.008 22.0312H191.344V34.2969C191.344 35.0521 191.539 35.5729 191.93 35.8594C192.333 36.1458 192.796 36.2891 193.316 36.2891C193.72 36.2891 194.124 36.2109 194.527 36.0547C194.931 35.8854 195.309 35.7161 195.66 35.5469C196.012 35.3646 196.318 35.1953 196.578 35.0391C196.839 34.8698 197.099 34.7852 197.359 34.7852C197.711 34.7852 197.978 35 198.16 35.4297L198.609 36.4453C198.727 36.7188 198.798 36.9141 198.824 37.0312C198.85 37.1354 198.863 37.2266 198.863 37.3047C198.863 37.7865 198.518 38.2617 197.828 38.7305C197.151 39.1862 196.298 39.5703 195.27 39.8828C194.254 40.1823 193.238 40.332 192.223 40.332Z" fill="#0A0903"/>
</svg>
