<svg width="277" height="64" viewBox="0 0 277 64" fill="none" xmlns="http://www.w3.org/2000/svg">
<rect x="77" y="7" width="94" height="50" rx="25" fill="#F4D06F"/>
<path d="M91.7227 46C91.4362 46 91.1823 45.8763 90.9609 45.6289C90.7526 45.3815 90.6484 45.0885 90.6484 44.75V17.3086C90.6484 16.9701 90.7526 16.6771 90.9609 16.4297C91.1823 16.1823 91.4362 16.0586 91.7227 16.0586H101.234C102.328 16.0586 103.448 16.1888 104.594 16.4492C105.74 16.6966 106.801 17.1068 107.777 17.6797C108.754 18.2526 109.542 19.0273 110.141 20.0039C110.74 20.9674 111.039 22.1654 111.039 23.5977C111.039 24.8867 110.792 25.987 110.297 26.8984C109.815 27.8099 109.184 28.5391 108.402 29.0859C107.621 29.6198 106.781 29.9779 105.883 30.1602V30.2383C107.081 30.2904 108.227 30.5638 109.32 31.0586C110.427 31.5534 111.332 32.2956 112.035 33.2852C112.738 34.2617 113.09 35.5052 113.09 37.0156C113.09 38.6432 112.79 40.0299 112.191 41.1758C111.592 42.3216 110.766 43.2526 109.711 43.9688C108.669 44.6719 107.458 45.1862 106.078 45.5117C104.711 45.8372 103.253 46 101.703 46H91.7227ZM101.664 41.8398C102.719 41.8398 103.721 41.7031 104.672 41.4297C105.622 41.1562 106.397 40.6745 106.996 39.9844C107.595 39.2943 107.895 38.3307 107.895 37.0938C107.895 36.0781 107.66 35.2708 107.191 34.6719C106.723 34.0729 106.104 33.6237 105.336 33.3242C104.581 33.0117 103.747 32.8099 102.836 32.7188C101.938 32.6146 101.046 32.5625 100.16 32.5625C99.7956 32.5625 99.431 32.569 99.0664 32.582C98.7148 32.5951 98.3568 32.6081 97.9922 32.6211C97.6406 32.6341 97.2826 32.6471 96.918 32.6602L95.4922 32.7188V41.8398H101.664ZM95.4922 28.793C96.2734 28.793 97.0612 28.7865 97.8555 28.7734C98.6497 28.7604 99.444 28.7279 100.238 28.6758C102.23 28.5586 103.695 28.1094 104.633 27.3281C105.583 26.5469 106.059 25.4206 106.059 23.9492C106.059 22.6471 105.557 21.6966 104.555 21.0977C103.552 20.4857 102.068 20.1797 100.102 20.1797H95.4922V28.793ZM128.773 46.4883C126.729 46.4883 124.887 46.0521 123.246 45.1797C121.618 44.3073 120.329 43.0443 119.379 41.3906C118.428 39.737 117.953 37.7383 117.953 35.3945C117.953 32.582 118.402 30.3034 119.301 28.5586C120.199 26.8008 121.456 25.5117 123.07 24.6914C124.698 23.8711 126.592 23.4609 128.754 23.4609C130.316 23.4609 131.703 23.7279 132.914 24.2617C134.125 24.7956 135.076 25.5768 135.766 26.6055C136.456 27.6341 136.801 28.9036 136.801 30.4141C136.801 31.9635 136.391 33.2135 135.57 34.1641C134.75 35.1146 133.669 35.8112 132.328 36.2539C131 36.6836 129.561 36.8984 128.012 36.8984C127.139 36.8984 126.293 36.8333 125.473 36.7031C124.652 36.5599 123.917 36.4036 123.266 36.2344C122.615 36.0521 122.1 35.9023 121.723 35.7852L122.992 33.3828C122.862 34.2161 122.758 34.8737 122.68 35.3555C122.615 35.8372 122.582 36.1953 122.582 36.4297C122.582 38.1615 123.148 39.6003 124.281 40.7461C125.414 41.8789 127.022 42.4453 129.105 42.4453C130.16 42.4453 131.026 42.3216 131.703 42.0742C132.393 41.8268 132.966 41.5664 133.422 41.293C133.786 41.0716 134.099 40.8828 134.359 40.7266C134.62 40.5573 134.867 40.4727 135.102 40.4727C135.297 40.4727 135.479 40.5182 135.648 40.6094C135.831 40.7005 136 40.8958 136.156 41.1953L136.684 42.2891C136.749 42.4193 136.794 42.543 136.82 42.6602C136.846 42.7643 136.859 42.875 136.859 42.9922C136.859 43.5781 136.579 44.0924 136.02 44.5352C135.473 44.9648 134.77 45.3294 133.91 45.6289C133.064 45.9154 132.178 46.1302 131.254 46.2734C130.329 46.4167 129.503 46.4883 128.773 46.4883ZM127.074 33.2852C128.585 33.2852 129.815 33.0638 130.766 32.6211C131.729 32.1784 132.211 31.4232 132.211 30.3555C132.211 29.3789 131.879 28.6693 131.215 28.2266C130.564 27.7839 129.646 27.5625 128.461 27.5625C127.536 27.5625 126.664 27.7253 125.844 28.0508C125.036 28.3633 124.359 28.8776 123.812 29.5938C123.279 30.2969 122.94 31.2474 122.797 32.4453C122.966 32.5234 123.266 32.6276 123.695 32.7578C124.125 32.888 124.633 33.0117 125.219 33.1289C125.818 33.2331 126.436 33.2852 127.074 33.2852ZM152.133 46.4883C150.089 46.4883 148.246 46.0521 146.605 45.1797C144.978 44.3073 143.689 43.0443 142.738 41.3906C141.788 39.737 141.312 37.7383 141.312 35.3945C141.312 32.582 141.762 30.3034 142.66 28.5586C143.559 26.8008 144.815 25.5117 146.43 24.6914C148.057 23.8711 149.952 23.4609 152.113 23.4609C153.676 23.4609 155.062 23.7279 156.273 24.2617C157.484 24.7956 158.435 25.5768 159.125 26.6055C159.815 27.6341 160.16 28.9036 160.16 30.4141C160.16 31.9635 159.75 33.2135 158.93 34.1641C158.109 35.1146 157.029 35.8112 155.688 36.2539C154.359 36.6836 152.921 36.8984 151.371 36.8984C150.499 36.8984 149.652 36.8333 148.832 36.7031C148.012 36.5599 147.276 36.4036 146.625 36.2344C145.974 36.0521 145.46 35.9023 145.082 35.7852L146.352 33.3828C146.221 34.2161 146.117 34.8737 146.039 35.3555C145.974 35.8372 145.941 36.1953 145.941 36.4297C145.941 38.1615 146.508 39.6003 147.641 40.7461C148.773 41.8789 150.382 42.4453 152.465 42.4453C153.52 42.4453 154.385 42.3216 155.062 42.0742C155.753 41.8268 156.326 41.5664 156.781 41.293C157.146 41.0716 157.458 40.8828 157.719 40.7266C157.979 40.5573 158.227 40.4727 158.461 40.4727C158.656 40.4727 158.839 40.5182 159.008 40.6094C159.19 40.7005 159.359 40.8958 159.516 41.1953L160.043 42.2891C160.108 42.4193 160.154 42.543 160.18 42.6602C160.206 42.7643 160.219 42.875 160.219 42.9922C160.219 43.5781 159.939 44.0924 159.379 44.5352C158.832 44.9648 158.129 45.3294 157.27 45.6289C156.423 45.9154 155.538 46.1302 154.613 46.2734C153.689 46.4167 152.862 46.4883 152.133 46.4883ZM150.434 33.2852C151.944 33.2852 153.174 33.0638 154.125 32.6211C155.089 32.1784 155.57 31.4232 155.57 30.3555C155.57 29.3789 155.238 28.6693 154.574 28.2266C153.923 27.7839 153.005 27.5625 151.82 27.5625C150.896 27.5625 150.023 27.7253 149.203 28.0508C148.396 28.3633 147.719 28.8776 147.172 29.5938C146.638 30.2969 146.299 31.2474 146.156 32.4453C146.326 32.5234 146.625 32.6276 147.055 32.7578C147.484 32.888 147.992 33.0117 148.578 33.1289C149.177 33.2331 149.796 33.2852 150.434 33.2852Z" fill="#0A0903"/>
<path d="M178.207 46C177.921 46 177.667 45.8763 177.445 45.6289C177.237 45.3815 177.133 45.0885 177.133 44.75V17.3086C177.133 16.9701 177.237 16.6771 177.445 16.4297C177.667 16.1823 177.921 16.0586 178.207 16.0586H187.719C188.812 16.0586 189.932 16.1888 191.078 16.4492C192.224 16.6966 193.285 17.1068 194.262 17.6797C195.238 18.2526 196.026 19.0273 196.625 20.0039C197.224 20.9674 197.523 22.1654 197.523 23.5977C197.523 24.8867 197.276 25.987 196.781 26.8984C196.299 27.8099 195.668 28.5391 194.887 29.0859C194.105 29.6198 193.266 29.9779 192.367 30.1602V30.2383C193.565 30.2904 194.711 30.5638 195.805 31.0586C196.911 31.5534 197.816 32.2956 198.52 33.2852C199.223 34.2617 199.574 35.5052 199.574 37.0156C199.574 38.6432 199.275 40.0299 198.676 41.1758C198.077 42.3216 197.25 43.2526 196.195 43.9688C195.154 44.6719 193.943 45.1862 192.562 45.5117C191.195 45.8372 189.737 46 188.188 46H178.207ZM188.148 41.8398C189.203 41.8398 190.206 41.7031 191.156 41.4297C192.107 41.1562 192.882 40.6745 193.48 39.9844C194.079 39.2943 194.379 38.3307 194.379 37.0938C194.379 36.0781 194.145 35.2708 193.676 34.6719C193.207 34.0729 192.589 33.6237 191.82 33.3242C191.065 33.0117 190.232 32.8099 189.32 32.7188C188.422 32.6146 187.53 32.5625 186.645 32.5625C186.28 32.5625 185.915 32.569 185.551 32.582C185.199 32.5951 184.841 32.6081 184.477 32.6211C184.125 32.6341 183.767 32.6471 183.402 32.6602L181.977 32.7188V41.8398H188.148ZM181.977 28.793C182.758 28.793 183.546 28.7865 184.34 28.7734C185.134 28.7604 185.928 28.7279 186.723 28.6758C188.715 28.5586 190.18 28.1094 191.117 27.3281C192.068 26.5469 192.543 25.4206 192.543 23.9492C192.543 22.6471 192.042 21.6966 191.039 21.0977C190.036 20.4857 188.552 20.1797 186.586 20.1797H181.977V28.793ZM210.238 46.332C208.91 46.332 207.849 45.9089 207.055 45.0625C206.26 44.2161 205.863 42.6927 205.863 40.4922V12.6211C205.863 12.2826 205.967 11.9896 206.176 11.7422C206.397 11.4948 206.651 11.3711 206.938 11.3711H209.594C209.893 11.3711 210.147 11.4948 210.355 11.7422C210.564 11.9896 210.668 12.2826 210.668 12.6211V40.6289C210.668 41.1497 210.766 41.5143 210.961 41.7227C211.156 41.918 211.384 42.0156 211.645 42.0156C211.944 42.0156 212.263 41.931 212.602 41.7617C212.953 41.5924 213.233 41.5078 213.441 41.5078C213.754 41.5078 213.988 41.6966 214.145 42.0742C214.197 42.2044 214.327 42.4909 214.535 42.9336C214.757 43.3763 214.867 43.7279 214.867 43.9883C214.867 44.3138 214.678 44.6328 214.301 44.9453C213.676 45.4661 213.012 45.8242 212.309 46.0195C211.618 46.2279 210.928 46.332 210.238 46.332ZM225.531 46.4883C224.268 46.4883 223.044 46.2214 221.859 45.6875C220.688 45.1406 219.724 44.3398 218.969 43.2852C218.214 42.2174 217.836 40.9023 217.836 39.3398C217.836 37.9596 218.09 36.8268 218.598 35.9414C219.105 35.056 219.737 34.3464 220.492 33.8125C221.247 33.2786 222.087 32.888 223.012 32.6406C223.949 32.3932 224.893 32.2695 225.844 32.2695C226.56 32.2695 227.348 32.3542 228.207 32.5234C229.066 32.6797 229.932 32.9987 230.805 33.4805C231.677 33.9492 232.478 34.6589 233.207 35.6094L231.742 35.7266C231.833 35.2839 231.898 34.8216 231.938 34.3398C231.977 33.8581 231.996 33.3958 231.996 32.9531C231.996 31.1693 231.488 29.8411 230.473 28.9688C229.47 28.0964 228.096 27.6602 226.352 27.6602C225.297 27.6602 224.398 27.7904 223.656 28.0508C222.927 28.3112 222.335 28.5586 221.879 28.793C221.632 28.9232 221.417 29.0273 221.234 29.1055C221.052 29.1836 220.902 29.2227 220.785 29.2227C220.499 29.2227 220.271 29.112 220.102 28.8906C219.932 28.6693 219.789 28.4349 219.672 28.1875C219.503 27.8229 219.372 27.4844 219.281 27.1719C219.19 26.8594 219.145 26.6771 219.145 26.625C219.145 26.3255 219.262 26.0391 219.496 25.7656C219.743 25.4922 220.056 25.2383 220.434 25.0039C221.332 24.457 222.387 24.0664 223.598 23.832C224.809 23.5977 225.948 23.4805 227.016 23.4805C227.719 23.4805 228.422 23.5456 229.125 23.6758C229.828 23.793 230.512 23.9948 231.176 24.2812C232.699 24.9323 233.904 25.9609 234.789 27.3672C235.688 28.7604 236.137 30.4661 236.137 32.4844C236.137 33.2917 236.078 34.0859 235.961 34.8672C235.857 35.6484 235.701 36.5273 235.492 37.5039C235.805 38.3893 236.091 39.2747 236.352 40.1602C236.612 41.0456 236.82 41.8984 236.977 42.7188C237.133 43.5391 237.217 44.2878 237.23 44.9648C237.23 45.2122 237.172 45.4466 237.055 45.668C236.938 45.8893 236.658 46 236.215 46H234.32C233.747 46 233.422 45.8633 233.344 45.5898C233.279 45.3034 233.22 44.9844 233.168 44.6328C233.129 44.3073 233.07 43.9232 232.992 43.4805C232.914 43.0378 232.836 42.6276 232.758 42.25C232.693 41.8724 232.628 41.6315 232.562 41.5273L233.324 41.3516C233.012 42.25 232.51 43.0898 231.82 43.8711C231.143 44.6523 230.277 45.2839 229.223 45.7656C228.168 46.2474 226.938 46.4883 225.531 46.4883ZM226.469 42.5039C227.367 42.5039 228.168 42.3281 228.871 41.9766C229.587 41.625 230.147 41.1953 230.551 40.6875C230.967 40.1667 231.176 39.6589 231.176 39.1641C231.124 38.474 230.857 37.901 230.375 37.4453C229.893 36.9896 229.294 36.651 228.578 36.4297C227.875 36.1953 227.139 36.0781 226.371 36.0781C225.811 36.0781 225.245 36.1953 224.672 36.4297C224.099 36.6641 223.617 37.0156 223.227 37.4844C222.849 37.9401 222.66 38.5195 222.66 39.2227C222.66 40.2904 223.018 41.1042 223.734 41.6641C224.464 42.224 225.375 42.5039 226.469 42.5039ZM248.891 46.4883C247.771 46.4883 246.638 46.3646 245.492 46.1172C244.346 45.8698 243.376 45.4531 242.582 44.8672C242.204 44.5807 241.938 44.3138 241.781 44.0664C241.625 43.806 241.547 43.5456 241.547 43.2852C241.547 42.9857 241.618 42.6732 241.762 42.3477C241.918 42.0091 242.107 41.625 242.328 41.1953C242.458 40.974 242.621 40.8047 242.816 40.6875C243.012 40.5573 243.227 40.4922 243.461 40.4922C243.604 40.4922 243.754 40.5182 243.91 40.5703C244.066 40.6224 244.21 40.7005 244.34 40.8047C244.991 41.3255 245.727 41.7357 246.547 42.0352C247.367 42.3346 248.181 42.4844 248.988 42.4844C250.147 42.4844 251.059 42.3021 251.723 41.9375C252.4 41.5729 252.738 40.9154 252.738 39.9648C252.738 39.4049 252.536 38.9427 252.133 38.5781C251.742 38.2005 251.234 37.8815 250.609 37.6211C249.997 37.3607 249.34 37.1133 248.637 36.8789C247.934 36.6315 247.27 36.3516 246.645 36.0391C245.746 35.5833 244.945 35.0885 244.242 34.5547C243.552 34.0078 243.005 33.3438 242.602 32.5625C242.211 31.7812 242.016 30.8177 242.016 29.6719C242.016 28.2786 242.393 27.1263 243.148 26.2148C243.917 25.2904 244.893 24.6068 246.078 24.1641C247.276 23.7083 248.513 23.4805 249.789 23.4805C250.87 23.4805 251.892 23.5911 252.855 23.8125C253.832 24.0208 254.704 24.3529 255.473 24.8086C255.993 25.1081 256.254 25.5378 256.254 26.0977C256.254 26.3711 256.202 26.6641 256.098 26.9766C255.993 27.276 255.87 27.582 255.727 27.8945C255.596 28.207 255.434 28.4349 255.238 28.5781C255.056 28.7214 254.841 28.793 254.594 28.793C254.438 28.793 254.268 28.7669 254.086 28.7148C253.917 28.6628 253.734 28.5846 253.539 28.4805C252.966 28.207 252.413 27.9792 251.879 27.7969C251.345 27.6016 250.616 27.5039 249.691 27.5039C249.079 27.5039 248.441 27.6667 247.777 27.9922C247.126 28.3047 246.801 28.8646 246.801 29.6719C246.801 30.2708 247.029 30.7591 247.484 31.1367C247.94 31.5143 248.565 31.8659 249.359 32.1914C250.167 32.5169 251.078 32.901 252.094 33.3438C253.018 33.7344 253.878 34.1836 254.672 34.6914C255.466 35.1992 256.104 35.8372 256.586 36.6055C257.068 37.3607 257.309 38.3307 257.309 39.5156C257.309 40.7396 257.009 41.8854 256.41 42.9531C255.811 44.0078 254.893 44.8607 253.656 45.5117C252.419 46.1628 250.831 46.4883 248.891 46.4883ZM269.223 46.332C267.569 46.332 266.228 45.8503 265.199 44.8867C264.171 43.9232 263.656 42.4583 263.656 40.4922V28.0312H262.016C261.56 28.0312 261.241 27.9271 261.059 27.7188C260.876 27.4974 260.785 27.2305 260.785 26.918V25.8047C260.785 25.5052 260.863 25.2708 261.02 25.1016C261.189 24.9323 261.495 24.8021 261.938 24.7109L263.891 24.1445L264.633 19.5547C264.698 19.1771 264.815 18.8711 264.984 18.6367C265.167 18.3893 265.401 18.2656 265.688 18.2656H267.309C267.608 18.2656 267.855 18.3893 268.051 18.6367C268.246 18.8711 268.344 19.1771 268.344 19.5547V23.9688H274.008C274.307 23.9688 274.561 24.0924 274.77 24.3398C274.978 24.5872 275.082 24.8802 275.082 25.2188V26.7812C275.082 27.1198 274.978 27.4128 274.77 27.6602C274.561 27.9076 274.307 28.0312 274.008 28.0312H268.344V40.2969C268.344 41.0521 268.539 41.5729 268.93 41.8594C269.333 42.1458 269.796 42.2891 270.316 42.2891C270.72 42.2891 271.124 42.2109 271.527 42.0547C271.931 41.8854 272.309 41.7161 272.66 41.5469C273.012 41.3646 273.318 41.1953 273.578 41.0391C273.839 40.8698 274.099 40.7852 274.359 40.7852C274.711 40.7852 274.978 41 275.16 41.4297L275.609 42.4453C275.727 42.7188 275.798 42.9141 275.824 43.0312C275.85 43.1354 275.863 43.2266 275.863 43.3047C275.863 43.7865 275.518 44.2617 274.828 44.7305C274.151 45.1862 273.298 45.5703 272.27 45.8828C271.254 46.1823 270.238 46.332 269.223 46.332Z" fill="#F7F3F3"/>
<path d="M64 31.9858C64 49.651 49.6731 63.9715 32 63.9715C14.3269 63.9715 0 49.651 0 31.9858C0 14.3205 14.3269 0 32 0C49.6731 0 64 14.3205 64 31.9858Z" fill="#F7F3F3"/>
<path d="M54.8235 29.869C54.8235 42.8582 44.289 53.388 31.2941 53.388C18.2991 53.388 7.76465 42.8582 7.76465 29.869C7.76465 16.8799 18.2991 6.3501 31.2941 6.3501C44.289 6.3501 54.8235 16.8799 54.8235 29.869Z" fill="#F4D06F"/>
<path d="M26.3438 51.7353L26.3208 52.1716C26.3208 54.2694 26.9871 55.9537 28.3199 57.2245C29.7138 58.572 31.6057 59.2457 33.9954 59.2457C36.1706 59.2457 38.1927 58.5949 40.0616 57.2934C40.4139 57.0485 40.7279 56.926 41.0037 56.926C41.5705 56.926 41.9994 57.2092 42.2904 57.7758L42.9108 59.062C43.0487 59.3682 43.1176 59.6974 43.1176 60.0496C43.1176 60.4017 42.9568 60.7692 42.6351 61.152C42.3287 61.5195 41.9228 61.8564 41.4173 62.1626C40.9118 62.4688 40.322 62.7368 39.648 62.9665C38.9893 63.1961 38.3076 63.3875 37.6029 63.5407C36.1936 63.8469 34.723 64 33.1912 64C31.6593 64 30.1121 63.7091 28.5496 63.1272C27.0025 62.5454 25.6621 61.6956 24.5285 60.5778C22.0928 58.2045 20.875 54.9967 20.875 50.9544C20.875 43.865 23.3719 39.4552 28.3658 37.725C29.9283 37.189 31.5291 36.9211 33.1682 36.9211C34.8226 36.9211 36.2243 37.0972 37.3732 37.4493C38.5374 37.8015 39.5407 38.3221 40.3833 39.0111C42.1602 40.4658 43.0487 42.4946 43.0487 45.0976C43.0487 47.6547 42.007 49.6069 39.9237 50.9544C38.1008 52.1334 35.6958 52.7229 32.7086 52.7229C30.8704 52.7229 28.7488 52.3937 26.3438 51.7353ZM37.6489 45.0287C37.6489 42.8391 36.1783 41.7443 33.2371 41.7443C30.4338 41.7443 28.473 42.7702 27.3548 44.822C26.9565 45.5416 26.6961 46.4297 26.5735 47.4862C27.8909 48.1446 29.5683 48.4738 31.6057 48.4738C35.6345 48.4738 37.6489 47.3255 37.6489 45.0287Z" fill="#0A0903"/>
<path d="M51.6765 5.49756C52.8535 5.49756 53.6415 5.87739 54.0405 6.63706C54.1802 6.89029 54.25 7.20682 54.25 7.58665V20.2026C54.25 23.7477 53.4221 26.7683 51.7662 29.2644C49.7912 32.3031 46.7688 33.8224 42.699 33.8224C39.9259 33.8224 37.6117 33.0989 35.7564 31.6519C34.1205 30.3496 33.0831 28.6856 32.6442 26.6598H32.5245C32.3848 29.4272 31.497 31.7243 29.8611 33.5511C27.9459 35.6312 25.3724 36.6712 22.1405 36.6712C17.4323 36.6712 13.8912 35.1066 11.5171 31.9775C9.42237 29.2463 8.375 25.5384 8.375 20.8538V7.58665C8.375 6.84507 8.62437 6.31149 9.12312 5.98592C9.64182 5.66035 10.2503 5.49756 10.9485 5.49756H51.6765ZM34.7389 12.2261C34.7389 14.9754 34.7988 17.173 34.9185 18.8189C35.098 21.6044 35.7763 23.6483 36.9534 24.9505C38.1504 26.2528 39.8162 26.904 41.9508 26.904C44.0855 26.904 45.6117 26.2076 46.5294 24.8149C47.467 23.4403 47.9358 21.3783 47.9358 18.629V12.2261H34.7389ZM14.749 20.7995C14.749 24.7787 15.9959 27.4195 18.4896 28.7218C19.4073 29.2101 20.4846 29.4543 21.7215 29.4543C22.9584 29.4543 23.946 29.3006 24.6841 28.9931C25.4223 28.6856 26.0507 28.2696 26.5694 27.7451C27.0881 27.2205 27.4971 26.6055 27.7963 25.9001C28.1155 25.1947 28.3649 24.4531 28.5444 23.6754C28.8237 22.3188 28.9634 20.9623 28.9634 19.6057C28.9634 17.9055 28.9135 16.1058 28.8138 14.2066L28.724 12.2261L14.749 12.2532V20.7995Z" fill="#0A0903"/>
<path d="M48 13.25V12.25H45.75L48 13.25Z" fill="#F4D06F"/>
<path d="M14.75 13.25V12.25H16L14.75 13.25Z" fill="#F4D06F"/>
</svg>
