<svg width="278" height="64" viewBox="0 0 278 64" fill="none" xmlns="http://www.w3.org/2000/svg">
<rect x="78" y="7" width="94" height="50" rx="25" fill="#F4D06F"/>
<path d="M92.7227 46C92.4362 46 92.1823 45.8763 91.9609 45.6289C91.7526 45.3815 91.6484 45.0885 91.6484 44.75V17.3086C91.6484 16.9701 91.7526 16.6771 91.9609 16.4297C92.1823 16.1823 92.4362 16.0586 92.7227 16.0586H102.234C103.328 16.0586 104.448 16.1888 105.594 16.4492C106.74 16.6966 107.801 17.1068 108.777 17.6797C109.754 18.2526 110.542 19.0273 111.141 20.0039C111.74 20.9674 112.039 22.1654 112.039 23.5977C112.039 24.8867 111.792 25.987 111.297 26.8984C110.815 27.8099 110.184 28.5391 109.402 29.0859C108.621 29.6198 107.781 29.9779 106.883 30.1602V30.2383C108.081 30.2904 109.227 30.5638 110.32 31.0586C111.427 31.5534 112.332 32.2956 113.035 33.2852C113.738 34.2617 114.09 35.5052 114.09 37.0156C114.09 38.6432 113.79 40.0299 113.191 41.1758C112.592 42.3216 111.766 43.2526 110.711 43.9688C109.669 44.6719 108.458 45.1862 107.078 45.5117C105.711 45.8372 104.253 46 102.703 46H92.7227ZM102.664 41.8398C103.719 41.8398 104.721 41.7031 105.672 41.4297C106.622 41.1562 107.397 40.6745 107.996 39.9844C108.595 39.2943 108.895 38.3307 108.895 37.0938C108.895 36.0781 108.66 35.2708 108.191 34.6719C107.723 34.0729 107.104 33.6237 106.336 33.3242C105.581 33.0117 104.747 32.8099 103.836 32.7188C102.938 32.6146 102.046 32.5625 101.16 32.5625C100.796 32.5625 100.431 32.569 100.066 32.582C99.7148 32.5951 99.3568 32.6081 98.9922 32.6211C98.6406 32.6341 98.2826 32.6471 97.918 32.6602L96.4922 32.7188V41.8398H102.664ZM96.4922 28.793C97.2734 28.793 98.0612 28.7865 98.8555 28.7734C99.6497 28.7604 100.444 28.7279 101.238 28.6758C103.23 28.5586 104.695 28.1094 105.633 27.3281C106.583 26.5469 107.059 25.4206 107.059 23.9492C107.059 22.6471 106.557 21.6966 105.555 21.0977C104.552 20.4857 103.068 20.1797 101.102 20.1797H96.4922V28.793ZM129.773 46.4883C127.729 46.4883 125.887 46.0521 124.246 45.1797C122.618 44.3073 121.329 43.0443 120.379 41.3906C119.428 39.737 118.953 37.7383 118.953 35.3945C118.953 32.582 119.402 30.3034 120.301 28.5586C121.199 26.8008 122.456 25.5117 124.07 24.6914C125.698 23.8711 127.592 23.4609 129.754 23.4609C131.316 23.4609 132.703 23.7279 133.914 24.2617C135.125 24.7956 136.076 25.5768 136.766 26.6055C137.456 27.6341 137.801 28.9036 137.801 30.4141C137.801 31.9635 137.391 33.2135 136.57 34.1641C135.75 35.1146 134.669 35.8112 133.328 36.2539C132 36.6836 130.561 36.8984 129.012 36.8984C128.139 36.8984 127.293 36.8333 126.473 36.7031C125.652 36.5599 124.917 36.4036 124.266 36.2344C123.615 36.0521 123.1 35.9023 122.723 35.7852L123.992 33.3828C123.862 34.2161 123.758 34.8737 123.68 35.3555C123.615 35.8372 123.582 36.1953 123.582 36.4297C123.582 38.1615 124.148 39.6003 125.281 40.7461C126.414 41.8789 128.022 42.4453 130.105 42.4453C131.16 42.4453 132.026 42.3216 132.703 42.0742C133.393 41.8268 133.966 41.5664 134.422 41.293C134.786 41.0716 135.099 40.8828 135.359 40.7266C135.62 40.5573 135.867 40.4727 136.102 40.4727C136.297 40.4727 136.479 40.5182 136.648 40.6094C136.831 40.7005 137 40.8958 137.156 41.1953L137.684 42.2891C137.749 42.4193 137.794 42.543 137.82 42.6602C137.846 42.7643 137.859 42.875 137.859 42.9922C137.859 43.5781 137.579 44.0924 137.02 44.5352C136.473 44.9648 135.77 45.3294 134.91 45.6289C134.064 45.9154 133.178 46.1302 132.254 46.2734C131.329 46.4167 130.503 46.4883 129.773 46.4883ZM128.074 33.2852C129.585 33.2852 130.815 33.0638 131.766 32.6211C132.729 32.1784 133.211 31.4232 133.211 30.3555C133.211 29.3789 132.879 28.6693 132.215 28.2266C131.564 27.7839 130.646 27.5625 129.461 27.5625C128.536 27.5625 127.664 27.7253 126.844 28.0508C126.036 28.3633 125.359 28.8776 124.812 29.5938C124.279 30.2969 123.94 31.2474 123.797 32.4453C123.966 32.5234 124.266 32.6276 124.695 32.7578C125.125 32.888 125.633 33.0117 126.219 33.1289C126.818 33.2331 127.436 33.2852 128.074 33.2852ZM153.133 46.4883C151.089 46.4883 149.246 46.0521 147.605 45.1797C145.978 44.3073 144.689 43.0443 143.738 41.3906C142.788 39.737 142.312 37.7383 142.312 35.3945C142.312 32.582 142.762 30.3034 143.66 28.5586C144.559 26.8008 145.815 25.5117 147.43 24.6914C149.057 23.8711 150.952 23.4609 153.113 23.4609C154.676 23.4609 156.062 23.7279 157.273 24.2617C158.484 24.7956 159.435 25.5768 160.125 26.6055C160.815 27.6341 161.16 28.9036 161.16 30.4141C161.16 31.9635 160.75 33.2135 159.93 34.1641C159.109 35.1146 158.029 35.8112 156.688 36.2539C155.359 36.6836 153.921 36.8984 152.371 36.8984C151.499 36.8984 150.652 36.8333 149.832 36.7031C149.012 36.5599 148.276 36.4036 147.625 36.2344C146.974 36.0521 146.46 35.9023 146.082 35.7852L147.352 33.3828C147.221 34.2161 147.117 34.8737 147.039 35.3555C146.974 35.8372 146.941 36.1953 146.941 36.4297C146.941 38.1615 147.508 39.6003 148.641 40.7461C149.773 41.8789 151.382 42.4453 153.465 42.4453C154.52 42.4453 155.385 42.3216 156.062 42.0742C156.753 41.8268 157.326 41.5664 157.781 41.293C158.146 41.0716 158.458 40.8828 158.719 40.7266C158.979 40.5573 159.227 40.4727 159.461 40.4727C159.656 40.4727 159.839 40.5182 160.008 40.6094C160.19 40.7005 160.359 40.8958 160.516 41.1953L161.043 42.2891C161.108 42.4193 161.154 42.543 161.18 42.6602C161.206 42.7643 161.219 42.875 161.219 42.9922C161.219 43.5781 160.939 44.0924 160.379 44.5352C159.832 44.9648 159.129 45.3294 158.27 45.6289C157.423 45.9154 156.538 46.1302 155.613 46.2734C154.689 46.4167 153.862 46.4883 153.133 46.4883ZM151.434 33.2852C152.944 33.2852 154.174 33.0638 155.125 32.6211C156.089 32.1784 156.57 31.4232 156.57 30.3555C156.57 29.3789 156.238 28.6693 155.574 28.2266C154.923 27.7839 154.005 27.5625 152.82 27.5625C151.896 27.5625 151.023 27.7253 150.203 28.0508C149.396 28.3633 148.719 28.8776 148.172 29.5938C147.638 30.2969 147.299 31.2474 147.156 32.4453C147.326 32.5234 147.625 32.6276 148.055 32.7578C148.484 32.888 148.992 33.0117 149.578 33.1289C150.177 33.2331 150.796 33.2852 151.434 33.2852ZM179.207 46C178.921 46 178.667 45.8763 178.445 45.6289C178.237 45.3815 178.133 45.0885 178.133 44.75V17.3086C178.133 16.9701 178.237 16.6771 178.445 16.4297C178.667 16.1823 178.921 16.0586 179.207 16.0586H188.719C189.812 16.0586 190.932 16.1888 192.078 16.4492C193.224 16.6966 194.285 17.1068 195.262 17.6797C196.238 18.2526 197.026 19.0273 197.625 20.0039C198.224 20.9674 198.523 22.1654 198.523 23.5977C198.523 24.8867 198.276 25.987 197.781 26.8984C197.299 27.8099 196.668 28.5391 195.887 29.0859C195.105 29.6198 194.266 29.9779 193.367 30.1602V30.2383C194.565 30.2904 195.711 30.5638 196.805 31.0586C197.911 31.5534 198.816 32.2956 199.52 33.2852C200.223 34.2617 200.574 35.5052 200.574 37.0156C200.574 38.6432 200.275 40.0299 199.676 41.1758C199.077 42.3216 198.25 43.2526 197.195 43.9688C196.154 44.6719 194.943 45.1862 193.562 45.5117C192.195 45.8372 190.737 46 189.188 46H179.207ZM189.148 41.8398C190.203 41.8398 191.206 41.7031 192.156 41.4297C193.107 41.1562 193.882 40.6745 194.48 39.9844C195.079 39.2943 195.379 38.3307 195.379 37.0938C195.379 36.0781 195.145 35.2708 194.676 34.6719C194.207 34.0729 193.589 33.6237 192.82 33.3242C192.065 33.0117 191.232 32.8099 190.32 32.7188C189.422 32.6146 188.53 32.5625 187.645 32.5625C187.28 32.5625 186.915 32.569 186.551 32.582C186.199 32.5951 185.841 32.6081 185.477 32.6211C185.125 32.6341 184.767 32.6471 184.402 32.6602L182.977 32.7188V41.8398H189.148ZM182.977 28.793C183.758 28.793 184.546 28.7865 185.34 28.7734C186.134 28.7604 186.928 28.7279 187.723 28.6758C189.715 28.5586 191.18 28.1094 192.117 27.3281C193.068 26.5469 193.543 25.4206 193.543 23.9492C193.543 22.6471 193.042 21.6966 192.039 21.0977C191.036 20.4857 189.552 20.1797 187.586 20.1797H182.977V28.793ZM211.238 46.332C209.91 46.332 208.849 45.9089 208.055 45.0625C207.26 44.2161 206.863 42.6927 206.863 40.4922V12.6211C206.863 12.2826 206.967 11.9896 207.176 11.7422C207.397 11.4948 207.651 11.3711 207.938 11.3711H210.594C210.893 11.3711 211.147 11.4948 211.355 11.7422C211.564 11.9896 211.668 12.2826 211.668 12.6211V40.6289C211.668 41.1497 211.766 41.5143 211.961 41.7227C212.156 41.918 212.384 42.0156 212.645 42.0156C212.944 42.0156 213.263 41.931 213.602 41.7617C213.953 41.5924 214.233 41.5078 214.441 41.5078C214.754 41.5078 214.988 41.6966 215.145 42.0742C215.197 42.2044 215.327 42.4909 215.535 42.9336C215.757 43.3763 215.867 43.7279 215.867 43.9883C215.867 44.3138 215.678 44.6328 215.301 44.9453C214.676 45.4661 214.012 45.8242 213.309 46.0195C212.618 46.2279 211.928 46.332 211.238 46.332ZM226.531 46.4883C225.268 46.4883 224.044 46.2214 222.859 45.6875C221.688 45.1406 220.724 44.3398 219.969 43.2852C219.214 42.2174 218.836 40.9023 218.836 39.3398C218.836 37.9596 219.09 36.8268 219.598 35.9414C220.105 35.056 220.737 34.3464 221.492 33.8125C222.247 33.2786 223.087 32.888 224.012 32.6406C224.949 32.3932 225.893 32.2695 226.844 32.2695C227.56 32.2695 228.348 32.3542 229.207 32.5234C230.066 32.6797 230.932 32.9987 231.805 33.4805C232.677 33.9492 233.478 34.6589 234.207 35.6094L232.742 35.7266C232.833 35.2839 232.898 34.8216 232.938 34.3398C232.977 33.8581 232.996 33.3958 232.996 32.9531C232.996 31.1693 232.488 29.8411 231.473 28.9688C230.47 28.0964 229.096 27.6602 227.352 27.6602C226.297 27.6602 225.398 27.7904 224.656 28.0508C223.927 28.3112 223.335 28.5586 222.879 28.793C222.632 28.9232 222.417 29.0273 222.234 29.1055C222.052 29.1836 221.902 29.2227 221.785 29.2227C221.499 29.2227 221.271 29.112 221.102 28.8906C220.932 28.6693 220.789 28.4349 220.672 28.1875C220.503 27.8229 220.372 27.4844 220.281 27.1719C220.19 26.8594 220.145 26.6771 220.145 26.625C220.145 26.3255 220.262 26.0391 220.496 25.7656C220.743 25.4922 221.056 25.2383 221.434 25.0039C222.332 24.457 223.387 24.0664 224.598 23.832C225.809 23.5977 226.948 23.4805 228.016 23.4805C228.719 23.4805 229.422 23.5456 230.125 23.6758C230.828 23.793 231.512 23.9948 232.176 24.2812C233.699 24.9323 234.904 25.9609 235.789 27.3672C236.688 28.7604 237.137 30.4661 237.137 32.4844C237.137 33.2917 237.078 34.0859 236.961 34.8672C236.857 35.6484 236.701 36.5273 236.492 37.5039C236.805 38.3893 237.091 39.2747 237.352 40.1602C237.612 41.0456 237.82 41.8984 237.977 42.7188C238.133 43.5391 238.217 44.2878 238.23 44.9648C238.23 45.2122 238.172 45.4466 238.055 45.668C237.938 45.8893 237.658 46 237.215 46H235.32C234.747 46 234.422 45.8633 234.344 45.5898C234.279 45.3034 234.22 44.9844 234.168 44.6328C234.129 44.3073 234.07 43.9232 233.992 43.4805C233.914 43.0378 233.836 42.6276 233.758 42.25C233.693 41.8724 233.628 41.6315 233.562 41.5273L234.324 41.3516C234.012 42.25 233.51 43.0898 232.82 43.8711C232.143 44.6523 231.277 45.2839 230.223 45.7656C229.168 46.2474 227.938 46.4883 226.531 46.4883ZM227.469 42.5039C228.367 42.5039 229.168 42.3281 229.871 41.9766C230.587 41.625 231.147 41.1953 231.551 40.6875C231.967 40.1667 232.176 39.6589 232.176 39.1641C232.124 38.474 231.857 37.901 231.375 37.4453C230.893 36.9896 230.294 36.651 229.578 36.4297C228.875 36.1953 228.139 36.0781 227.371 36.0781C226.811 36.0781 226.245 36.1953 225.672 36.4297C225.099 36.6641 224.617 37.0156 224.227 37.4844C223.849 37.9401 223.66 38.5195 223.66 39.2227C223.66 40.2904 224.018 41.1042 224.734 41.6641C225.464 42.224 226.375 42.5039 227.469 42.5039ZM249.891 46.4883C248.771 46.4883 247.638 46.3646 246.492 46.1172C245.346 45.8698 244.376 45.4531 243.582 44.8672C243.204 44.5807 242.938 44.3138 242.781 44.0664C242.625 43.806 242.547 43.5456 242.547 43.2852C242.547 42.9857 242.618 42.6732 242.762 42.3477C242.918 42.0091 243.107 41.625 243.328 41.1953C243.458 40.974 243.621 40.8047 243.816 40.6875C244.012 40.5573 244.227 40.4922 244.461 40.4922C244.604 40.4922 244.754 40.5182 244.91 40.5703C245.066 40.6224 245.21 40.7005 245.34 40.8047C245.991 41.3255 246.727 41.7357 247.547 42.0352C248.367 42.3346 249.181 42.4844 249.988 42.4844C251.147 42.4844 252.059 42.3021 252.723 41.9375C253.4 41.5729 253.738 40.9154 253.738 39.9648C253.738 39.4049 253.536 38.9427 253.133 38.5781C252.742 38.2005 252.234 37.8815 251.609 37.6211C250.997 37.3607 250.34 37.1133 249.637 36.8789C248.934 36.6315 248.27 36.3516 247.645 36.0391C246.746 35.5833 245.945 35.0885 245.242 34.5547C244.552 34.0078 244.005 33.3438 243.602 32.5625C243.211 31.7812 243.016 30.8177 243.016 29.6719C243.016 28.2786 243.393 27.1263 244.148 26.2148C244.917 25.2904 245.893 24.6068 247.078 24.1641C248.276 23.7083 249.513 23.4805 250.789 23.4805C251.87 23.4805 252.892 23.5911 253.855 23.8125C254.832 24.0208 255.704 24.3529 256.473 24.8086C256.993 25.1081 257.254 25.5378 257.254 26.0977C257.254 26.3711 257.202 26.6641 257.098 26.9766C256.993 27.276 256.87 27.582 256.727 27.8945C256.596 28.207 256.434 28.4349 256.238 28.5781C256.056 28.7214 255.841 28.793 255.594 28.793C255.438 28.793 255.268 28.7669 255.086 28.7148C254.917 28.6628 254.734 28.5846 254.539 28.4805C253.966 28.207 253.413 27.9792 252.879 27.7969C252.345 27.6016 251.616 27.5039 250.691 27.5039C250.079 27.5039 249.441 27.6667 248.777 27.9922C248.126 28.3047 247.801 28.8646 247.801 29.6719C247.801 30.2708 248.029 30.7591 248.484 31.1367C248.94 31.5143 249.565 31.8659 250.359 32.1914C251.167 32.5169 252.078 32.901 253.094 33.3438C254.018 33.7344 254.878 34.1836 255.672 34.6914C256.466 35.1992 257.104 35.8372 257.586 36.6055C258.068 37.3607 258.309 38.3307 258.309 39.5156C258.309 40.7396 258.009 41.8854 257.41 42.9531C256.811 44.0078 255.893 44.8607 254.656 45.5117C253.419 46.1628 251.831 46.4883 249.891 46.4883ZM270.223 46.332C268.569 46.332 267.228 45.8503 266.199 44.8867C265.171 43.9232 264.656 42.4583 264.656 40.4922V28.0312H263.016C262.56 28.0312 262.241 27.9271 262.059 27.7188C261.876 27.4974 261.785 27.2305 261.785 26.918V25.8047C261.785 25.5052 261.863 25.2708 262.02 25.1016C262.189 24.9323 262.495 24.8021 262.938 24.7109L264.891 24.1445L265.633 19.5547C265.698 19.1771 265.815 18.8711 265.984 18.6367C266.167 18.3893 266.401 18.2656 266.688 18.2656H268.309C268.608 18.2656 268.855 18.3893 269.051 18.6367C269.246 18.8711 269.344 19.1771 269.344 19.5547V23.9688H275.008C275.307 23.9688 275.561 24.0924 275.77 24.3398C275.978 24.5872 276.082 24.8802 276.082 25.2188V26.7812C276.082 27.1198 275.978 27.4128 275.77 27.6602C275.561 27.9076 275.307 28.0312 275.008 28.0312H269.344V40.2969C269.344 41.0521 269.539 41.5729 269.93 41.8594C270.333 42.1458 270.796 42.2891 271.316 42.2891C271.72 42.2891 272.124 42.2109 272.527 42.0547C272.931 41.8854 273.309 41.7161 273.66 41.5469C274.012 41.3646 274.318 41.1953 274.578 41.0391C274.839 40.8698 275.099 40.7852 275.359 40.7852C275.711 40.7852 275.978 41 276.16 41.4297L276.609 42.4453C276.727 42.7188 276.798 42.9141 276.824 43.0312C276.85 43.1354 276.863 43.2266 276.863 43.3047C276.863 43.7865 276.518 44.2617 275.828 44.7305C275.151 45.1862 274.298 45.5703 273.27 45.8828C272.254 46.1823 271.238 46.332 270.223 46.332Z" fill="#0A0903"/>
<path d="M64 31.9858C64 49.651 49.6731 63.9715 32 63.9715C14.3269 63.9715 0 49.651 0 31.9858C0 14.3205 14.3269 0 32 0C49.6731 0 64 14.3205 64 31.9858Z" fill="#F7F3F3"/>
<path d="M54.8235 29.869C54.8235 42.8582 44.289 53.388 31.2941 53.388C18.2991 53.388 7.76465 42.8582 7.76465 29.869C7.76465 16.8799 18.2991 6.3501 31.2941 6.3501C44.289 6.3501 54.8235 16.8799 54.8235 29.869Z" fill="#F4D06F"/>
<path d="M26.3438 51.7353L26.3208 52.1717C26.3208 54.2694 26.9871 55.9537 28.3199 57.2246C29.7138 58.572 31.6057 59.2458 33.9954 59.2458C36.1706 59.2458 38.1927 58.595 40.0616 57.2935C40.4139 57.0485 40.7279 56.926 41.0037 56.926C41.5705 56.926 41.9994 57.2093 42.2904 57.7758L42.9108 59.062C43.0487 59.3683 43.1176 59.6975 43.1176 60.0496C43.1176 60.4018 42.9568 60.7693 42.6351 61.1521C42.3287 61.5196 41.9228 61.8564 41.4173 62.1627C40.9118 62.4689 40.322 62.7369 39.648 62.9665C38.9893 63.1962 38.3076 63.3876 37.6029 63.5407C36.1936 63.847 34.723 64.0001 33.1912 64.0001C31.6593 64.0001 30.1121 63.7092 28.5496 63.1273C27.0025 62.5455 25.6621 61.6957 24.5285 60.5779C22.0928 58.2046 20.875 54.9967 20.875 50.9544C20.875 43.865 23.3719 39.4552 28.3658 37.725C29.9283 37.1891 31.5291 36.9211 33.1682 36.9211C34.8226 36.9211 36.2243 37.0972 37.3732 37.4494C38.5374 37.8016 39.5407 38.3222 40.3833 39.0112C42.1602 40.4658 43.0487 42.4946 43.0487 45.0976C43.0487 47.6547 42.007 49.607 39.9237 50.9544C38.1008 52.1334 35.6958 52.7229 32.7086 52.7229C30.8704 52.7229 28.7488 52.3937 26.3438 51.7353ZM37.6489 45.0287C37.6489 42.8392 36.1783 41.7444 33.2371 41.7444C30.4338 41.7444 28.473 42.7703 27.3548 44.822C26.9565 45.5417 26.6961 46.4298 26.5735 47.4863C27.8909 48.1447 29.5683 48.4739 31.6057 48.4739C35.6345 48.4739 37.6489 47.3255 37.6489 45.0287Z" fill="#0A0903"/>
<path d="M51.6765 5.49756C52.8535 5.49756 53.6415 5.87739 54.0405 6.63706C54.1802 6.89029 54.25 7.20682 54.25 7.58665V20.2026C54.25 23.7477 53.4221 26.7683 51.7662 29.2644C49.7912 32.3031 46.7688 33.8224 42.699 33.8224C39.9259 33.8224 37.6117 33.0989 35.7564 31.6519C34.1205 30.3496 33.0831 28.6856 32.6442 26.6598H32.5245C32.3848 29.4272 31.497 31.7243 29.8611 33.5511C27.9459 35.6312 25.3724 36.6712 22.1405 36.6712C17.4323 36.6712 13.8912 35.1066 11.5171 31.9775C9.42237 29.2463 8.375 25.5384 8.375 20.8538V7.58665C8.375 6.84507 8.62437 6.31149 9.12312 5.98592C9.64182 5.66035 10.2503 5.49756 10.9485 5.49756H51.6765ZM34.7389 12.2261C34.7389 14.9754 34.7988 17.173 34.9185 18.8189C35.098 21.6044 35.7763 23.6483 36.9534 24.9505C38.1504 26.2528 39.8162 26.904 41.9508 26.904C44.0855 26.904 45.6117 26.2076 46.5294 24.8149C47.467 23.4403 47.9358 21.3783 47.9358 18.629V12.2261H34.7389ZM14.749 20.7995C14.749 24.7787 15.9959 27.4195 18.4896 28.7218C19.4073 29.2101 20.4846 29.4543 21.7215 29.4543C22.9584 29.4543 23.946 29.3006 24.6841 28.9931C25.4223 28.6856 26.0507 28.2696 26.5694 27.7451C27.0881 27.2205 27.4971 26.6055 27.7963 25.9001C28.1155 25.1947 28.3649 24.4531 28.5444 23.6754C28.8237 22.3188 28.9634 20.9623 28.9634 19.6057C28.9634 17.9055 28.9135 16.1058 28.8138 14.2066L28.724 12.2261L14.749 12.2532V20.7995Z" fill="#0A0903"/>
<path d="M48 13.25V12.25H45.75L48 13.25Z" fill="#F4D06F"/>
<path d="M14.75 13.25V12.25H16L14.75 13.25Z" fill="#F4D06F"/>
</svg>
