<svg width="1024" height="1024" viewBox="0 0 1024 1024" fill="none" xmlns="http://www.w3.org/2000/svg">
<path d="M1024 511.772C1024 794.416 794.77 1023.54 512 1023.54C229.23 1023.54 0 794.416 0 511.772C0 229.128 229.23 0 512 0C794.77 0 1024 229.128 1024 511.772Z" fill="#F7F3F3"/>
<path d="M877.177 477.905C877.177 685.731 708.625 854.208 500.706 854.208C292.787 854.208 124.235 685.731 124.235 477.905C124.235 270.078 292.787 101.602 500.706 101.602C708.625 101.602 877.177 270.078 877.177 477.905Z" fill="#F4D06F"/>
<path d="M421.5 827.764L421.132 834.746C421.132 868.31 431.794 895.258 453.118 915.592C475.422 937.151 505.691 947.931 543.926 947.931C578.73 947.931 611.083 937.519 640.985 916.695C646.623 912.775 651.647 910.815 656.059 910.815C665.127 910.815 671.99 915.347 676.647 924.412L686.574 944.991C688.779 949.891 689.882 955.158 689.882 960.793C689.882 966.428 687.309 972.307 682.162 978.432C677.26 984.312 670.765 989.702 662.676 994.601C654.588 999.501 645.152 1003.79 634.368 1007.46C623.828 1011.14 612.922 1014.2 601.647 1016.65C579.098 1021.55 555.569 1024 531.059 1024C506.549 1024 481.794 1019.35 456.794 1010.04C432.039 1000.73 410.593 987.129 392.456 969.245C353.485 931.272 334 879.947 334 815.269C334 701.84 373.951 631.283 453.853 603.599C478.853 595.024 504.466 590.737 530.691 590.737C557.162 590.737 579.588 593.554 597.971 599.189C616.598 604.824 632.652 613.154 646.132 624.178C674.564 647.452 688.779 679.913 688.779 721.561C688.779 762.474 672.113 793.71 638.779 815.269C609.613 834.134 571.132 843.566 523.338 843.566C493.926 843.566 459.98 838.298 421.5 827.764ZM602.382 720.459C602.382 685.425 578.853 667.909 531.794 667.909C486.941 667.909 455.569 684.323 437.676 717.151C431.304 728.666 427.137 742.875 425.176 759.779C446.255 770.314 473.093 775.581 505.691 775.581C570.152 775.581 602.382 757.207 602.382 720.459Z" fill="#0A0903"/>
<path d="M826.823 87.9608C845.656 87.9608 858.264 94.0382 864.648 106.193C866.883 110.244 868 115.309 868 121.386V323.242C868 379.964 854.753 428.293 828.26 468.23C796.659 516.849 748.3 541.159 683.183 541.159C638.815 541.159 601.787 529.583 572.102 506.431C545.927 485.594 529.329 458.969 522.307 426.557H520.391C518.157 470.835 503.953 507.588 477.778 536.818C447.135 570.098 405.958 586.739 354.248 586.739C278.917 586.739 222.259 561.706 184.274 511.64C150.758 467.941 134 408.614 134 333.66V121.386C134 109.521 137.99 100.984 145.97 95.7746C154.269 90.5654 164.005 87.9608 175.177 87.9608H826.823ZM555.823 195.617C555.823 239.606 556.78 274.767 558.695 301.103C561.568 345.67 572.421 378.372 591.254 399.209C610.406 420.045 637.059 430.464 671.213 430.464C705.368 430.464 729.786 419.322 744.47 397.038C759.472 375.044 766.973 342.053 766.973 298.064V195.617H555.823ZM235.984 332.792C235.984 396.459 255.934 438.712 295.834 459.548C310.517 467.362 327.754 471.269 347.545 471.269C367.335 471.269 383.135 468.809 394.946 463.889C406.756 458.969 416.811 452.313 425.11 443.921C433.409 435.528 439.953 425.689 444.741 414.402C449.848 403.116 453.838 391.25 456.711 378.806C461.18 357.101 463.414 335.396 463.414 313.691C463.414 286.488 462.616 257.693 461.02 227.306L459.584 195.617L235.984 196.051V332.792Z" fill="#0A0903"/>
</svg>
